<?xml version="1.0" standalone="no"?><!DOCTYPE svg PUBLIC "-//W3C//DTD SVG 1.1//EN" "http://www.w3.org/Graphics/SVG/1.1/DTD/svg11.dtd"><svg t="1611538750571" class="icon" viewBox="0 0 1024 1024" version="1.1" xmlns="http://www.w3.org/2000/svg" p-id="24489" width="70" height="70" xmlns:xlink="http://www.w3.org/1999/xlink"><defs><style type="text/css"></style></defs><path d="M1015.725 799.007c0 57.881-22.555 112.311-63.507 153.252-40.915 40.921-95.329 63.459-153.216 63.459s-112.305-22.539-153.237-63.459c-40.948-40.942-63.502-95.371-63.502-153.252 0-22.496 3.569-44.95 10.613-66.752l3.927-12.215-122.646-73.602-8.934 9.255-1.934 2.138c-50.791 50.902-118.045 79.084-189.108 79.084-71.032 0-137.805-27.658-188.017-77.876-50.234-50.25-77.903-117.023-77.903-188.039s27.669-137.788 77.903-188.028c50.219-50.229 116.992-77.887 188.018-77.887 57.952 0 113.117 18.499 159.537 53.51l7.967 6.039 156.999-78.519v-9.993c0-92.55 75.146-167.841 167.514-167.841s167.514 75.152 167.514 167.52-75.146 167.509-167.514 167.509c-55.844 0-107.865-27.819-139.151-74.414l-7.93-11.777-125.706 62.85 8.961 14.94c24.687 41.22 37.742 88.276 37.742 136.089 0 35.406-6.808 69.765-20.236 102.103l-5.349 12.867 119.753 71.871 8.923-9.245 1.859-2.084c41.253-41.294 96.029-64.219 153.937-64.219 57.887 0 112.301 22.539 153.216 63.459 40.953 40.944 63.507 95.372 63.507 153.253zM654.908 799.007c0 79.448 64.641 144.094 144.094 144.094 79.442 0 144.072-64.646 144.072-144.094s-64.63-144.094-144.072-144.094c-79.453 0-144.094 64.646-144.094 144.094zM671.318 175.801c0 52.324 42.561 94.89 94.88 94.89s94.885-42.566 94.885-94.89-42.566-94.901-94.885-94.901c-52.319 0-94.88 42.578-94.88 94.901zM80.911 470.999c0 106.582 86.699 193.297 193.27 193.297 106.582 0 193.286-86.715 193.286-193.297s-86.704-193.298-193.286-193.297c-106.571 0-193.27 86.715-193.27 193.297z" p-id="24490" fill="#ffffff"></path></svg>