<?xml version="1.0" standalone="no"?><!DOCTYPE svg PUBLIC "-//W3C//DTD SVG 1.1//EN" "http://www.w3.org/Graphics/SVG/1.1/DTD/svg11.dtd"><svg t="1611537753568" class="icon" viewBox="0 0 1024 1024" version="1.1" xmlns="http://www.w3.org/2000/svg" p-id="3565" width="70" height="70" xmlns:xlink="http://www.w3.org/1999/xlink"><defs><style type="text/css"></style></defs><path d="M414.72 133.12c-20.48 0-40.96 20.48-35.84 40.96 0 20.48 20.48 40.96 40.96 40.96s40.96-20.48 40.96-40.96c-5.12-25.6-20.48-40.96-46.08-40.96z" fill="#ffffff" p-id="3566"></path><path d="M947.2 399.36c-20.48-81.92-66.56-128-128-128h-56.32V184.32c0-66.56-51.2-122.88-128-133.12C563.2 40.96 496.64 35.84 414.72 51.2 307.2 71.68 286.72 117.76 286.72 184.32v81.92H230.4c-81.92 5.12-138.24 51.2-153.6 128-20.48 87.04-20.48 143.36 0 225.28 20.48 81.92 66.56 128 138.24 128h46.08v81.92c0 61.44 46.08 107.52 122.88 133.12 40.96 10.24 76.8 15.36 112.64 15.36s71.68-5.12 112.64-15.36c102.4-30.72 122.88-87.04 122.88-133.12v-81.92h81.92c81.92 0 107.52-61.44 128-122.88 25.6-66.56 25.6-138.24 5.12-225.28zM261.12 624.64v71.68h-46.08c-46.08 0-71.68-30.72-87.04-87.04-20.48-76.8-20.48-122.88 0-204.8C143.36 332.8 204.8 317.44 235.52 317.44h291.84c15.36 0 25.6-10.24 25.6-25.6s-10.24-25.6-25.6-25.6H337.92V184.32c0-46.08 5.12-71.68 81.92-81.92 71.68-10.24 138.24-10.24 204.8 0 40.96 5.12 81.92 35.84 81.92 81.92v199.68c0 46.08-35.84 81.92-81.92 81.92h-204.8c-87.04 5.12-158.72 76.8-158.72 158.72z m634.88-15.36c-25.6 71.68-40.96 92.16-81.92 92.16H496.64c-15.36 0-25.6 10.24-25.6 25.6s10.24 25.6 25.6 25.6h184.32v81.92c0 35.84-30.72 66.56-87.04 81.92-66.56 20.48-128 20.48-194.56 0-40.96-10.24-87.04-35.84-87.04-81.92v-204.8c0-56.32 51.2-107.52 107.52-107.52h209.92c71.68 0 133.12-61.44 133.12-133.12V322.56H819.2c25.6 0 61.44 10.24 81.92 87.04 15.36 81.92 15.36 143.36-5.12 199.68z" fill="#ffffff" p-id="3567"></path><path d="M614.4 875.52c20.48 0 40.96-20.48 40.96-40.96s-20.48-40.96-40.96-40.96-40.96 20.48-40.96 40.96 20.48 40.96 40.96 40.96z" fill="#ffffff" p-id="3568"></path></svg>