<?xml version="1.0" standalone="no"?><!DOCTYPE svg PUBLIC "-//W3C//DTD SVG 1.1//EN" "http://www.w3.org/Graphics/SVG/1.1/DTD/svg11.dtd"><svg t="1645760484801" class="icon" viewBox="0 0 1024 1024" version="1.1" xmlns="http://www.w3.org/2000/svg" p-id="20604" width="70" height="70" xmlns:xlink="http://www.w3.org/1999/xlink"><defs><style type="text/css"></style></defs><path d="M242.37 865.33c-7.17 0.09-14.14-2.38-19.65-6.97C78.94 736.95 26.3 538.66 90.94 361.93 155.57 185.2 323.72 67.66 511.89 67.66c188.18 0 356.33 117.54 420.96 294.27 64.64 176.73 12 375.02-131.78 496.43-12.35 10.21-30.59 8.69-41.07-3.42a28.38 28.38 0 0 1-6.85-21.02c0.66-7.64 4.38-14.7 10.33-19.54 124.88-105.9 170.4-278.48 114-432.19-56.4-153.72-202.74-255.9-366.48-255.9-163.73 0-310.07 102.18-366.47 255.9-56.41 153.71-10.88 326.29 114 432.19a28.902 28.902 0 0 1-18.45 50.95h2.29z m0 0" p-id="20605" fill="#444444"></path><path d="M511.92 632.05c13.79 0 25.62 9.26 28.11 22.02l0.45 4.83v268.4c0.03 13.91-11.24 25.53-25.98 26.79-14.73 1.26-28.05-8.27-30.68-21.96l-0.46-4.84V658.9c0-14.83 12.79-26.85 28.56-26.85z m0 0" p-id="20606" fill="#444444"></path><path d="M344.79 762.39c-6.81-0.03-13.37-2.5-18.51-6.97-95.56-80.92-130.45-212.9-87.36-330.47 43.09-117.58 155-195.75 280.23-195.75s237.14 78.17 280.23 195.75c43.1 117.57 8.21 249.55-87.36 330.47a28.303 28.303 0 0 1-20.85 7.12 28.355 28.355 0 0 1-19.65-9.98c-10.38-12.2-9.12-30.47 2.86-41.13 77.38-65.31 105.73-172 70.96-267.11-34.77-95.1-125.24-158.36-226.5-158.36S327.1 349.22 292.33 444.32c-34.77 95.1-6.42 201.8 70.97 267.11 12.15 10.49 13.68 28.77 3.43 41.13a27.757 27.757 0 0 1-21.94 9.83z m0 0" p-id="20607" fill="#444444"></path><path d="M518.27 672.72c-80.16 0-145.15-64.99-145.15-145.15 0-80.16 64.99-145.14 145.15-145.14 80.16 0 145.14 64.98 145.14 145.14-0.34 80-65.09 144.77-145.09 145.15h-0.05z m0-231.35c-35.43 0-67.34 21.41-80.79 54.19-13.45 32.78-5.77 70.43 19.45 95.31 25.21 24.89 62.97 32.07 95.56 18.19 32.6-13.88 53.58-46.07 53.12-81.5-0.31-48.1-39.23-87.02-87.34-87.34v1.15z m0 0" p-id="20608" fill="#444444"></path></svg>