<?xml version="1.0" standalone="no"?><!DOCTYPE svg PUBLIC "-//W3C//DTD SVG 1.1//EN" "http://www.w3.org/Graphics/SVG/1.1/DTD/svg11.dtd"><svg t="1610671094559" class="icon" viewBox="0 0 1066 1024" version="1.1" xmlns="http://www.w3.org/2000/svg" p-id="48615" width="72.87109375" height="70" xmlns:xlink="http://www.w3.org/1999/xlink"><defs><style type="text/css"></style></defs><path d="M529.92500029 567.125c-11.17500029 0-22.20000029-2.32499971-32.43750029-6.82499971L107.225 388.32499971C79.92500029 376.25000029 62.71250029 350.9 62.29999971 322.13750029c-0.37500029-28.72500029 16.0875-54.48750029 42.93750058-67.23750058L495.53749971 69.9875a81.1125 81.1125 0 0 1 68.77500029 0l389.85000029 184.95c26.84999971 12.75000029 43.3125 38.475 42.93749971 67.20000029-0.37500029 28.76249971-17.62499971 54.1125-44.8875 66.15l-389.85000029 172.0125c-10.2375 4.5-21.2625 6.78750029-32.43749942 6.78749942zM140.3 321.01250029l387.37500029 170.81249942a6.00000029 6.00000029 0 0 0 4.53749942 0L919.09999971 321.12500029 532.28750029 137.56249971a5.85 5.85 0 0 0-4.725 0L140.3 321.04999971z m783.74999971 3.29999942h0.675-0.63749971z m-393.93749971 637.12500029c-10.87499971 0-21.75000029-2.40000029-31.95-7.3125L120.65000029 790.8875a37.38750029 37.38750029 0 1 1 29.7-68.625l378.82499942 163.87499971 361.27500029-163.61249942a37.38750029 37.38750029 0 1 1 30.9375 68.09999942l-360.45 163.87500058a70.80000029 70.80000029 0 0 1-30.825 6.975z" fill="#fff" p-id="48616"></path><path d="M905.93749971 515.52500029l-376.425 163.575-376.12499942-163.2375v76.98749942c0 14.36249971 8.55 27.29999971 21.74999942 32.9625l315.48750029 135.15000029a89.325 89.325 0 0 0 77.77500029 0l315.82499942-135.48750029a35.84999971 35.84999971 0 0 0 21.7125-32.92499971v-77.02499971z" fill="#fff" p-id="48617"></path></svg>