<?xml version="1.0" standalone="no"?><!DOCTYPE svg PUBLIC "-//W3C//DTD SVG 1.1//EN" "http://www.w3.org/Graphics/SVG/1.1/DTD/svg11.dtd"><svg t="1620207592289" class="icon" viewBox="0 0 1024 1024" version="1.1" xmlns="http://www.w3.org/2000/svg" p-id="12716" width="70" height="70" xmlns:xlink="http://www.w3.org/1999/xlink"><defs><style type="text/css"></style></defs><path d="M328.26 505.26l-128.5-77.01c-10.3-6.27-23.73-2.91-29.78 7.39-6.27 10.29-2.91 23.73 7.39 30l128.5 77.01c10.3 6.27 23.73 2.91 29.77-7.61 6.28-10.32 2.92-23.76-7.38-29.78z m137.01 451.32c5.15 1.57 10.97 1.12 16.34-2.01-4.92 2.69-10.74 3.58-16.34 2.01zM328.26 505.26l-128.5-77.01c-10.3-6.27-23.73-2.91-29.78 7.39-6.27 10.29-2.91 23.73 7.39 30l128.5 77.01c10.3 6.27 23.73 2.91 29.77-7.61 6.28-10.32 2.92-23.76-7.38-29.78z m0 0l-128.5-77.01c-10.3-6.27-23.73-2.91-29.78 7.39-6.27 10.29-2.91 23.73 7.39 30l128.5 77.01c10.3 6.27 23.73 2.91 29.77-7.61 6.28-10.32 2.92-23.76-7.38-29.78z m0 0l-128.5-77.01c-10.3-6.27-23.73-2.91-29.78 7.39-6.27 10.29-2.91 23.73 7.39 30l128.5 77.01c10.3 6.27 23.73 2.91 29.77-7.61 6.28-10.32 2.92-23.76-7.38-29.78z m0 0l-128.5-77.01c-10.3-6.27-23.73-2.91-29.78 7.39-6.27 10.29-2.91 23.73 7.39 30l128.5 77.01c10.3 6.27 23.73 2.91 29.77-7.61 6.28-10.32 2.92-23.76-7.38-29.78z m0 0l-128.5-77.01c-10.3-6.27-23.73-2.91-29.78 7.39-6.27 10.29-2.91 23.73 7.39 30l128.5 77.01c10.3 6.27 23.73 2.91 29.77-7.61 6.28-10.32 2.92-23.76-7.38-29.78z m0 0" p-id="12717" fill="#fff"></path><path d="M481.61 954.54c-5.37 3.13-11.19 3.58-16.34 2.02 5.6 1.59 11.42 0.7 16.34-2.02z m0 0" p-id="12718" fill="#fff"></path><path d="M492.94 898.2V511.35l340.73-193.43 34.88-21.13c6.99-4.54 8.31-10.32 9.22-14.46 0.9-8.51-3.13-17.46-11.86-21.94L480.85 67.87c-6.27-3.14-13.43-3.14-19.7 0L76.1 260.39c-14.33 9.4-12.09 30.22-12.09 32.46v410.8c0 7.61 4.03 14.78 10.52 18.8 0 0 376.77 227.67 383.26 230.59 13.21 6.49 21.49 4.7 27.76 1.57l125.37-72.53a22.346 22.346 0 0 0 8.06-30.67c-6.05-10.74-19.92-14.33-30.45-8.28l-86.64 50.37v-0.23l-8.95 4.93m-43.88-386.85v385.73l-341.4-205.73V317.48l341.4 193.87zM471 473.29L132.29 281.21 471 111.97l338.71 169.24L471 473.29z m0 0" p-id="12719" fill="#fff"></path><path d="M774.79 866.07l176.63-106.11c4.93-3.13 8.06-8.51 8.06-14.55V550.87c0-6.85-5.15-11.64-10.75-14.33l-4.47-2.24c-0.45-0.23-1.12-0.23-1.57-0.23h1.34l-171.71-85.74c-4.7-2.24-10.29-2.24-15 0l-171.49 85.74c-12.54 4.82-15.67 15.56-15.67 21.61v189.73c0 6.05 3.13 11.42 8.28 14.55 0 0 175.04 105.02 175.94 105.24 0.02 0.02 10.45 7.74 20.41 0.87z m-26.64-42.98L603.76 736V579.52l144.39 81.71v161.86z m16.79-190.74l-140.81-79.92 140.81-70.3 140.59 70.3-140.59 79.92zM925.9 736l-144.18 86.86V661.23l144.18-81.71V736z m0 0" p-id="12720" fill="#fff"></path></svg>