<?xml version="1.0" standalone="no"?><!DOCTYPE svg PUBLIC "-//W3C//DTD SVG 1.1//EN" "http://www.w3.org/Graphics/SVG/1.1/DTD/svg11.dtd"><svg t="1641776864563" class="icon" viewBox="0 0 1024 1024" version="1.1" xmlns="http://www.w3.org/2000/svg" p-id="33597" width="70" height="70" xmlns:xlink="http://www.w3.org/1999/xlink"><defs><style type="text/css"></style></defs><path d="M225.5 935.8h-19.6c-59 0-107-47.2-107-105.2V199c0-58 48-105.2 107-105.2h608.8c59 0 107 47.2 107 105.2v199.1c0 16.3-13.2 29.5-29.5 29.5s-29.5-13.2-29.5-29.5V199c0-25.5-21.5-46.3-48-46.3H205.9c-26.5 0-48 20.8-48 46.3v631.6c0 25.5 21.5 46.3 48 46.3h19.6c16.3 0 29.5 13.2 29.5 29.5s-13.2 29.4-29.5 29.4z" p-id="33598" fill="#444444"></path><path d="M778.2 666.8H590.4c-16.3 0-29.5-13.2-29.5-29.5s13.2-29.5 29.5-29.5h187.9c16.3 0 29.5 13.2 29.5 29.5s-13.3 29.5-29.6 29.5zM494.1 666.8h-9.8c-16.3 0-29.5-13.2-29.5-29.5s13.2-29.5 29.5-29.5h9.8c16.3 0 29.5 13.2 29.5 29.5s-13.2 29.5-29.5 29.5zM778.2 799.4H590.4c-16.3 0-29.5-13.2-29.5-29.5s13.2-29.5 29.5-29.5h187.9c16.3 0 29.5 13.2 29.5 29.5s-13.3 29.5-29.6 29.5zM494.1 799.4h-9.8c-16.3 0-29.5-13.2-29.5-29.5s13.2-29.5 29.5-29.5h9.8c16.3 0 29.5 13.2 29.5 29.5s-13.2 29.5-29.5 29.5z" p-id="33599" fill="#444444"></path><path d="M828.1 932.8H412.6c-54.2 0-98.2-44.1-98.2-98.2V570.3c0-54.2 44.1-98.2 98.2-98.2h415.5c54.2 0 98.2 44.1 98.2 98.2v264.2c0 54.2-44 98.3-98.2 98.3zM412.6 531c-21.7 0-39.3 17.6-39.3 39.3v264.2c0 21.7 17.6 39.3 39.3 39.3h415.5c21.7 0 39.3-17.6 39.3-39.3V570.3c0-21.7-17.6-39.3-39.3-39.3H412.6zM491.1 419.4c-12.9 0-25.1-5-34.2-14.2L378.4 325c-11.4-11.6-11.2-30.3 0.5-41.7 11.6-11.4 30.3-11.2 41.7 0.5l70.6 72.2 143.2-143.2c11.5-11.5 30.2-11.5 41.7 0 11.5 11.5 11.5 30.2 0 41.7L525.3 405.2c-9.1 9.2-21.3 14.2-34.2 14.2z" p-id="33600" fill="#444444"></path></svg>