<?xml version="1.0" standalone="no"?><!DOCTYPE svg PUBLIC "-//W3C//DTD SVG 1.1//EN" "http://www.w3.org/Graphics/SVG/1.1/DTD/svg11.dtd"><svg t="1620206653926" class="icon" viewBox="0 0 1024 1024" version="1.1" xmlns="http://www.w3.org/2000/svg" p-id="6809" width="70" height="70" xmlns:xlink="http://www.w3.org/1999/xlink"><defs><style type="text/css"></style></defs><path d="M140.8 555.456c1.472 30.464 31.872 16.384 45.696 6.848 13.056-9.024 22.592 0.32 23.744-17.536 0.704-11.712-3.648-25.28-4.288-37.056a86.208 86.208 0 0 0-57.472 14.72c-8.384 6.08-24 25.408-7.68 33.024" p-id="6810" fill="#cdd9e5"></path><path d="M140.8 555.456c4.416-1.664 9.088-2.816 12.096-6.848" p-id="6811" fill="#cdd9e5"></path><path d="M748.8 930.176c23.424 14.528 66.24 58.368 31.104 79.616-33.792 30.912-52.672-33.92-82.304-42.944 12.736-17.344 28.928-33.152 51.2-36.672zM337.856 976.384c-27.52 4.288-48.448 30.016-71.36 42.624-21.632 12.864-32.96-2.688-34.944-6.144-2.368-1.984 0 0-5.248-5.248-20.032-31.616 20.864-54.72 42.176-70.4 29.632-6.016 53.76 18.752 69.376 39.168z" p-id="6812" fill="#cdd9e5"></path><path d="M219.264 187.456l63.744-120.064C189.376 6.4 102.72 154.688 219.264 187.456z m-12.416-77.952c8.704-16.448 24.896-14.656 40.256-6.528l-22.976 43.52c-15.36-8.128-26.688-19.2-17.28-36.992zM726.592 69.184c92.224-64.768 175.616 81.408 68.416 118.208l-68.416-118.208z m44.096 74.816c15.36-8.128 26.688-19.2 17.28-36.992-8.704-16.448-24.896-14.656-40.256-6.528l22.976 43.52z" p-id="6813" fill="#cdd9e5"></path><path d="M878.912 551.616c-1.472 30.464-31.872 16.384-45.696 6.848-13.056-9.024-16.896-1.536-18.048-19.392-0.768-11.712-2.112-23.424-1.408-35.2 19.776-1.792 41.28 2.944 57.472 14.72 8.384 6.016 24 25.408 7.68 33.024" p-id="6814" fill="#cdd9e5"></path><path d="M878.912 551.616c-4.416-1.664-9.088-2.816-12.096-6.848M818.688 522.752c-7.808-132.8 10.432-268.288-40.768-393.984C720.896 16.704 611.52 0 494.848 0 369.088 9.92 252.224 39.104 208.896 168.064c-41.792 124.416-2.24 252.032-7.36 379.136-4.288 107.328-32.512 250.752 27.072 347.2 50.752 82.24 159.488 111.616 249.472 114.816 114.56 4.096 253.632-23.872 309.248-135.04 52.992-105.664 38.08-237.376 31.36-351.424z m-57.856 329.088c-50.368 104.448-176.256 130.688-279.936 126.848-81.472-3.008-179.904-30.592-225.792-107.84-53.952-90.624-28.416-225.344-24.512-326.208 4.608-119.424-31.168-239.232 6.656-356.16C276.48 67.328 382.208 39.872 496.064 30.592c105.6 0 204.608 15.68 256.256 120.96 46.336 118.016 29.824 245.312 36.928 370.112 6.016 107.136 19.456 230.848-28.416 330.176z" p-id="6815" fill="#cdd9e5"></path><path d="M710.208 129.792c-25.6-110.144-198.336-79.616-191.424 33.216 20.928 121.792 220.032 89.6 191.424-33.216z m-165.888 29.568c-5.12-80.512 122.176-102.272 141.056-23.68 21.056 87.616-125.632 110.592-141.056 23.68zM280.896 182.72c27.136 106.048 196.864 78.848 190.464-27.456C463.744 27.84 254.912 52.416 280.896 182.72z m25.024-6.336C286.848 83.456 440.192 65.92 445.824 156.8c4.736 75.84-119.936 95.232-139.904 19.584z" p-id="6816" fill="#cdd9e5"></path><path d="M332.992 134.4c-15.808 0-28.672 13.888-28.672 31.04s12.864 31.04 28.672 31.04 28.672-13.888 28.672-31.04S348.8 134.4 332.992 134.4z m13.056 45.888c-3.776 0-6.784-3.52-6.784-7.872s3.072-7.872 6.784-7.872c3.776 0 6.784 3.52 6.784 7.872s-3.072 7.872-6.784 7.872zM573.184 126.592c-15.552 0-28.224 13.888-28.224 31.104 0 17.152 12.608 31.04 28.16 31.104 15.552 0 28.224-13.888 28.224-31.04v-0.064c0-17.152-12.608-31.04-28.16-31.104z m12.8 46.016c-3.712 0-6.656-3.52-6.656-7.872 0-4.416 3.008-7.936 6.656-7.872 3.712 0 6.656 3.52 6.656 7.872s-3.008 7.872-6.656 7.872z" p-id="6817" fill="#cdd9e5"></path><path d="M465.216 249.088c-23.36 1.984-42.368 29.696-30.272 51.584 16.064 29.056 51.84-2.56 74.176 0.384 25.664 0.576 46.72 27.2 67.328 4.864 22.912-24.832-9.856-49.024-35.52-59.84l-75.712 3.008z" p-id="6818" fill="#cdd9e5"></path><path d="M503.04 301.248c-5.248 0.512-10.88 1.984-16.768 3.968a366.72 366.72 0 0 1-2.56 37.824c-3.968 16.704-9.728-14.592-8-34.368a79.36 79.36 0 0 1-16.576 4.096c-8.512 31.36 10.624 83.072 42.688 40.896-2.24-17.664 0.32-34.816 1.216-52.416zM542.912 311.36c-4.736-1.792-9.664-3.968-14.72-5.888 0.064 10.56 0.32 25.664-0.256 36.288-0.768 5.056-1.216 7.68-3.648 7.68-1.792-0.96-3.328-5.12-4.096-11.072-0.448-11.904 0.128-23.488 0.32-35.392a48.768 48.768 0 0 0-11.392-1.92c-1.408-0.192-2.944 0.064-4.416 0.128-0.896 17.984-3.584 35.456-1.28 53.44a27.584 27.584 0 0 0 21.184 16.512c6.784-1.6 14.784-3.904 18.816-11.52 2.88-16.064-0.128-32.96-0.512-48.256z" p-id="6819" fill="#cdd9e5"></path><path d="M462.272 247.872c-1.728-40.384 75.264-45.44 84.352-11.648 9.088 33.728-80.576 41.536-84.352 11.648-3.008-23.936 0 0 0 0zM231.04 1012.928s3.2-4.8 11.584-8.832M771.392 998.016s4.8 3.2 8.832 11.584" p-id="6820" fill="#cdd9e5"></path></svg>