<?xml version="1.0" standalone="no"?><!DOCTYPE svg PUBLIC "-//W3C//DTD SVG 1.1//EN" "http://www.w3.org/Graphics/SVG/1.1/DTD/svg11.dtd"><svg t="1610670866836" class="icon" viewBox="0 0 1024 1024" version="1.1" xmlns="http://www.w3.org/2000/svg" p-id="39667" width="70" height="70" xmlns:xlink="http://www.w3.org/1999/xlink"><defs><style type="text/css"></style></defs><path d="M211.2 435.2a288 76.8 0 1 0 576 0 288 76.8 0 1 0-576 0Z" fill="#adbac7" p-id="39668"></path><path d="M492.8 51.2s12.8 64 0 96-64 64-96 83.2c-51.2 32-51.2 128-51.2 128s32-64 70.4-76.8 115.2-57.6 134.4-102.4c19.2-64-57.6-128-57.6-128z" fill="#adbac7" p-id="39669"></path><path d="M652.8 6.4s19.2 83.2-12.8 121.6-134.4 108.8-160 147.2-51.2 140.8-51.2 140.8 51.2-70.4 121.6-121.6 140.8-64 160-147.2c12.8-51.2-57.6-140.8-57.6-140.8zM755.2 147.2s0 57.6-25.6 76.8c-32 19.2-108.8 57.6-128 89.6-25.6 25.6-44.8 89.6-44.8 89.6s57.6-64 83.2-76.8c25.6-12.8 108.8-38.4 128-64 44.8-51.2-12.8-115.2-12.8-115.2z" fill="#adbac7" p-id="39670"></path><path d="M172.8 358.4s-64 38.4-51.2 83.2 83.2 102.4 358.4 96c275.2-6.4 339.2-76.8 339.2-108.8 0-44.8-108.8-76.8-147.2-76.8-12.8 0 76.8 12.8 64 64-6.4 32-179.2 70.4-288 76.8-128 6.4-300.8-32-307.2-76.8 0-32 32-57.6 32-57.6z" fill="#adbac7" p-id="39671"></path><path d="M115.2 480s32 332.8 332.8 326.4 320-256 377.6-307.2c51.2-38.4 108.8-25.6 128-19.2 51.2 25.6 70.4 83.2 64 140.8-6.4 44.8-64 96-121.6 76.8s-70.4-70.4-70.4-70.4 51.2 32 96 19.2 51.2-89.6 12.8-115.2c-44.8-25.6-96 0-108.8 44.8-6.4 19.2-70.4 300.8-377.6 288-307.2 0-332.8-262.4-332.8-384z" fill="#adbac7" p-id="39672"></path><path d="M89.6 774.4s-51.2 32-51.2 70.4S153.6 960 473.6 960s396.8-76.8 409.6-89.6 25.6-64-121.6-83.2c0 0 160-12.8 179.2 70.4s-128 153.6-467.2 147.2-480-96-467.2-166.4c6.4-57.6 83.2-64 83.2-64z" fill="#adbac7" p-id="39673"></path></svg>