<?xml version="1.0" standalone="no"?><!DOCTYPE svg PUBLIC "-//W3C//DTD SVG 1.1//EN" "http://www.w3.org/Graphics/SVG/1.1/DTD/svg11.dtd"><svg t="1611619496895" class="icon" viewBox="0 0 1024 1024" version="1.1" xmlns="http://www.w3.org/2000/svg" p-id="2528" width="70" height="70" xmlns:xlink="http://www.w3.org/1999/xlink"><defs><style type="text/css"></style></defs><path d="M775.835413 73.033708l-1.954901-1.163631a33.000592 33.000592 0 0 0-44.124911 11.543225l-17.780291 29.695879a31.324963 31.324963 0 0 0-3.304713 24.343173 31.371508 31.371508 0 0 0 15.313392 19.269739l1.954901 1.163632a32.954047 32.954047 0 0 0 44.12491-11.636316l17.780291-29.695879a31.371508 31.371508 0 0 0 3.304714-24.343173 31.371508 31.371508 0 0 0-15.266847-19.269739z m-497.243057 45.847086l-18.618106-30.812965a32.116232 32.116232 0 0 0-43.194005-11.310499l-3.071987 1.722174a30.85951 30.85951 0 0 0-14.987575 18.897378 30.85951 30.85951 0 0 0 3.211623 23.924265l18.618106 30.859511a32.116232 32.116232 0 0 0 43.194005 11.310499l3.118533-1.722175a30.719874 30.719874 0 0 0 15.080665-18.897377 30.673329 30.673329 0 0 0-3.304714-23.970811zM624.749485 961.024258H400.727129a33.140228 33.140228 0 0 0-33.279864 25.64644 31.65078 31.65078 0 0 0 31.697325 37.236211h224.720535a32.581685 32.581685 0 0 0 31.604235-21.317731 31.930051 31.930051 0 0 0-30.85951-41.890737zM513.692485 0.004189h-3.444349a31.697325 31.697325 0 0 0-31.976597 31.324963v34.955493a31.697325 31.697325 0 0 0 32.023142 31.324963h3.44435a31.65078 31.65078 0 0 0 32.023141-31.324963V31.329152A31.697325 31.697325 0 0 0 513.739031 0.004189zM40.606421 329.544659l31.697325 17.687201a32.581685 32.581685 0 0 0 43.706003-11.450135l1.256722-2.001447a30.999146 30.999146 0 0 0 3.304713-24.156992 30.999146 30.999146 0 0 0-15.173756-19.083558l-31.74387-17.687201a32.581685 32.581685 0 0 0-43.706003 11.450135l-1.210177 2.047992a31.045691 31.045691 0 0 0-3.304713 24.156992 31.045691 31.045691 0 0 0 15.173756 19.083558zM487.859864 158.258087a368.26613 368.26613 0 0 0-345.970949 340.245881 360.539616 360.539616 0 0 0 192.83703 339.780428v28.346066a47.895077 47.895077 0 0 0 48.360529 47.289988h257.953854a47.895077 47.895077 0 0 0 48.360529-47.289988v-28.346066a361.28434 361.28434 0 0 0 193.442118-318.229971 367.707587 367.707587 0 0 0-394.983111-361.610157z m160.301889 629.431607h-23.272632v63.022288H399.284226v-63.022288h-23.272632a297.563874 297.563874 0 0 1-167.562951-306.500564A303.382032 303.382032 0 0 1 477.200998 222.444006a303.847484 303.847484 0 0 1 341.316422 297.424238 298.448234 298.448234 0 0 1-170.216031 267.82145zM950.100882 272.992163l-31.278418 17.314838a31.464599 31.464599 0 0 0-15.266846 19.26974 31.464599 31.464599 0 0 0 3.258168 24.343173l0.930905 1.535994a33.000592 33.000592 0 0 0 44.124911 11.49668l31.324963-17.361384a31.418053 31.418053 0 0 0 15.266846-19.269739 31.418053 31.418053 0 0 0-3.258168-24.343173l-0.930906-1.535994a33.000592 33.000592 0 0 0-44.12491-11.49668z m-252.78733 157.881536a20.666097 20.666097 0 0 0 0.837815 7.586878 20.433371 20.433371 0 0 0 4.049438 8.378148 102.073764 102.073764 0 0 0 11.357044 18.618105 22.853725 22.853725 0 0 0 16.756296 7.167971 23.505358 23.505358 0 0 0 23.551903-23.272632 62.789561 62.789561 0 0 0-4.933798-17.780291 52.409967 52.409967 0 0 0-15.732299-19.874828 18.618106 18.618106 0 0 0-11.170863-4.654526 25.879167 25.879167 0 0 0-24.715536 23.924266z m10.845047-55.435409a23.272632 23.272632 0 0 0-7.028335-19.26974 269.031627 269.031627 0 0 0-159.41753-88.15673v0.511998a24.389718 24.389718 0 0 0-5.166524-0.79127 24.529354 24.529354 0 0 0-24.482809 23.831176 21.783184 21.783184 0 0 0 14.754849 19.967918 1.349813 1.349813 0 0 0 0 0.605088 224.068902 224.068902 0 0 1 136.191443 74.89133c0.511998-0.372362 11.450135 12.567221 20.386825 12.660312a26.298074 26.298074 0 0 0 25.134443-24.156992z m0 0" p-id="2529" fill="#cdd9e5"></path></svg>