<?xml version="1.0" standalone="no"?><!DOCTYPE svg PUBLIC "-//W3C//DTD SVG 1.1//EN" "http://www.w3.org/Graphics/SVG/1.1/DTD/svg11.dtd"><svg t="1610670257931" class="icon" viewBox="0 0 1024 1024" version="1.1" xmlns="http://www.w3.org/2000/svg" p-id="20210" width="70" height="70" xmlns:xlink="http://www.w3.org/1999/xlink"><defs><style type="text/css"></style></defs><path d="M479.232 913.408h-291.84c-16.896 0-30.72-13.824-30.72-30.72s13.824-30.72 30.72-30.72h291.84c16.896 0 30.72 13.824 30.72 30.72 0 17.408-13.824 30.72-30.72 30.72z" fill="#444" p-id="20211"></path><path d="M557.056 1024h-460.288c-50.688 0-92.16-41.472-92.16-92.16V95.744c0-50.688 41.472-92.16 92.16-92.16h460.288c50.688 0 92.16 41.472 92.16 92.16V931.84c0 50.688-41.472 92.16-92.16 92.16z m-460.288-958.976c-16.896 0-30.72 13.824-30.72 30.72V931.84c0 16.896 13.824 30.72 30.72 30.72h460.288c16.896 0 30.72-13.824 30.72-30.72V95.744c0-16.896-13.824-30.72-30.72-30.72h-460.288z" fill="#444" p-id="20212"></path><path d="M343.552 165.888h-98.816c-11.264 0-20.48-9.216-20.48-20.48s9.216-20.48 20.48-20.48h99.328c11.264 0 20.48 9.216 20.48 20.48-0.512 11.776-9.728 20.48-20.992 20.48z" fill="#444" p-id="20213"></path><path d="M414.72 145.408m-20.48 0a20.48 20.48 0 1 0 40.96 0 20.48 20.48 0 1 0-40.96 0Z" fill="#444" p-id="20214"></path><path d="M930.816 1021.44H706.56c-16.896 0-30.72-13.824-30.72-30.72s13.824-30.72 30.72-30.72h224.256c16.896 0 30.72-13.824 30.72-30.72v-460.288c0-16.896-13.824-30.72-30.72-30.72h-230.912c-16.896 0-30.72-13.824-30.72-30.72s13.824-30.72 30.72-30.72h230.912c50.688 0 92.16 41.472 92.16 92.16v460.288c0 50.688-41.472 92.16-92.16 92.16z" fill="#444" p-id="20215"></path><path d="M860.16 715.776v-99.328c0-11.264 9.216-20.48 20.48-20.48s20.48 9.216 20.48 20.48v99.328c0 11.264-9.216 20.48-20.48 20.48s-20.48-8.704-20.48-20.48z" fill="#444" p-id="20216"></path><path d="M880.64 786.944m-20.48 0a20.48 20.48 0 1 0 40.96 0 20.48 20.48 0 1 0-40.96 0Z" fill="#444" p-id="20217"></path></svg>