<?xml version="1.0" standalone="no"?><!DOCTYPE svg PUBLIC "-//W3C//DTD SVG 1.1//EN" "http://www.w3.org/Graphics/SVG/1.1/DTD/svg11.dtd"><svg t="1640908946505" class="icon" viewBox="0 0 1024 1024" version="1.1" xmlns="http://www.w3.org/2000/svg" p-id="2832" width="70" height="70" xmlns:xlink="http://www.w3.org/1999/xlink"><defs><style type="text/css"></style></defs><path d="M557.35808 913.46944c-18.88256 10.24-32.59392 14.80192-44.45696 14.80192-11.94496 0-25.2672-4.52096-44.45696-15.13472-320.1792-176.896-319.11936-273.78688-315.1872-634.30144 0.39424-35.84512 0.81408-74.10176 0.93696-115.08224 49.60256-14.6944 102.63552-28.55936 157.95712-41.25696 60.42112-13.88032 127.63136-22.85056 199.71072-26.7008 137.14432 15.21152 242.33984 35.28192 356.26496 68.1472 0.20992 46.3104 0.81408 89.07776 1.33632 128.71168 4.97664 362.37312 6.18496 448.47616-312.10496 620.81536m374.54848-621.6704c-0.62464-45.99808-1.3056-96.1792-1.41312-151.296a31.1808 31.1808 0 0 0-22.26688-29.824C781.0048 72.50432 667.4432 50.12992 516.19328 33.45408a33.46944 33.46944 0 0 0-5.01248-0.14336c-76.67712 3.95264-148.34176 13.48608-213.00736 28.32896-65.06496 14.94528-127.11424 31.46752-184.35072 49.1008a31.22176 31.22176 0 0 0-22.02112 29.82912c0 49.59744-0.51712 95.26272-0.95744 137.57952-3.95264 359.99232-5.43232 494.70464 347.40224 689.64864 29.09696 16.06656 51.4304 22.91712 74.65984 22.91712 22.81472 0 45.70624-6.89152 74.20416-22.31296 351.47264-190.36672 349.94176-303.104 344.79616-676.60288m-200.10496 13.9008L450.26816 588.288 312.064 449.60768a41.6768 41.6768 0 0 0-58.88-0.1024 41.66144 41.66144 0 0 0-0.10752 58.88l167.69536 168.27392c7.82336 7.82848 18.42176 12.24192 29.49632 12.24192s21.68832-4.40832 29.4912-12.25728l311.02464-312.20736a41.6256 41.6256 0 0 0-0.128-58.86464c-16.25088-16.20992-42.64448-16.18944-58.8544 0.128" p-id="2833" fill="#444444"></path></svg>