<?xml version="1.0" standalone="no"?><!DOCTYPE svg PUBLIC "-//W3C//DTD SVG 1.1//EN" "http://www.w3.org/Graphics/SVG/1.1/DTD/svg11.dtd"><svg t="1611538440774" class="icon" viewBox="0 0 1024 1024" version="1.1" xmlns="http://www.w3.org/2000/svg" p-id="10333" width="70" height="70" xmlns:xlink="http://www.w3.org/1999/xlink"><defs><style type="text/css"></style></defs><path d="M159.516444 467.399111a357.148444 357.148444 0 0 1 309.020445-309.020444V68.380444A445.952 445.952 0 0 0 69.404444 467.399111h90.055112z m398.222223-309.020444a357.091556 357.091556 0 0 1 309.020444 309.020444h89.998222a445.895111 445.895111 0 0 0-399.075555-399.075555v90.055111zM468.48 865.621333a357.148444 357.148444 0 0 1-309.020444-309.020444H69.404444a446.008889 446.008889 0 0 0 399.075556 399.018667v-89.998223z m398.222222-309.020444a357.091556 357.091556 0 0 1-309.077333 309.020444v89.998223a446.008889 446.008889 0 0 0 399.075555-399.075556h-89.998222z" fill="#adbac7" p-id="10334"></path><path d="M65.308444 67.982222l3.811556-3.811555c19.740444-19.740444 39.480889-19.740444 59.221333 0L225.166222 160.995556c19.740444 19.740444 19.740444 39.480889 0 59.278222l-3.811555 3.754666c-19.740444 19.797333-39.480889 19.797333-59.221334 0L65.308444 127.260444c-19.740444-19.797333-19.740444-39.537778 0-59.278222zM69.12 959.829333l-3.811556-3.811555c-19.740444-19.797333-19.740444-39.537778 0-59.278222l96.824889-96.824889c19.740444-19.740444 39.480889-19.740444 59.221334 0l3.811555 3.811555c19.740444 19.740444 19.740444 39.537778 0 59.278222l-96.824889 96.824889c-19.740444 19.740444-39.480889 19.740444-59.221333 0zM960.910222 956.017778l-3.811555 3.754666c-19.740444 19.797333-39.480889 19.797333-59.221334 0L800.995556 863.004444c-19.740444-19.797333-19.740444-39.537778 0-59.278222l3.811555-3.811555c19.740444-19.740444 39.480889-19.740444 59.221333 0l96.824889 96.824889c19.740444 19.740444 19.740444 39.480889 0 59.278222zM957.098667 64.170667l3.811555 3.811555c19.740444 19.740444 19.740444 39.480889 0 59.278222l-96.824889 96.768c-19.740444 19.740444-39.480889 19.740444-59.221333 0l-3.811556-3.811555c-19.740444-19.740444-19.740444-39.480889 0-59.221333l96.824889-96.824889c19.740444-19.740444 39.480889-19.740444 59.221334 0zM399.36 512a113.777778 113.777778 0 1 0 227.555556 0 113.777778 113.777778 0 0 0-227.555556 0z" fill="#adbac7" p-id="10335"></path></svg>