<?xml version="1.0" standalone="no"?><!DOCTYPE svg PUBLIC "-//W3C//DTD SVG 1.1//EN" "http://www.w3.org/Graphics/SVG/1.1/DTD/svg11.dtd"><svg t="1620213973740" class="icon" viewBox="0 0 1024 1024" version="1.1" xmlns="http://www.w3.org/2000/svg" p-id="21459" width="70" height="70" xmlns:xlink="http://www.w3.org/1999/xlink"><defs><style type="text/css"></style></defs><path d="M420.864 187.392C190.976 187.392 3.584 375.296 3.584 604.672s187.904 417.28 417.28 417.28 417.28-187.904 417.28-417.28-187.392-417.28-417.28-417.28zM293.376 257.024c-20.992 25.6-39.424 57.856-55.808 95.232-18.432-9.216-34.816-20.992-51.2-34.816 32.768-25.6 67.584-46.592 107.008-60.416zM152.064 349.696c18.432 18.432 41.984 32.256 67.072 46.592-18.432 55.808-27.648 118.272-30.208 185.344H49.664c7.168-90.624 44.032-171.52 102.4-231.936z m-99.84 278.528h139.264c2.56 67.072 13.824 130.048 30.208 185.344-25.6 13.824-48.64 27.648-67.072 46.592-60.928-60.416-97.792-141.824-102.4-231.936z m134.144 264.192c13.824-11.776 32.256-23.04 51.2-34.816 16.384 36.864 34.816 69.632 55.808 95.232-39.424-13.824-74.24-34.816-107.008-60.416z m211.456 78.848c-48.64-11.776-90.624-62.464-120.832-134.656 36.864-13.824 76.8-20.992 120.832-23.04v157.696z m0-204.288c-48.64 2.56-95.232 11.776-134.656 27.648-13.824-48.64-23.04-106.496-25.6-166.912h162.304v139.264h-2.048z m0-185.344H235.52c2.56-60.416 11.776-118.272 25.6-166.912 41.984 16.384 86.016 25.6 134.656 27.648v139.264h2.048z m0-185.856c-44.032-2.56-83.456-11.776-120.832-23.04 30.208-71.68 71.68-120.832 120.832-134.656v157.696zM655.36 316.928c-13.824 11.776-32.256 23.04-51.2 34.816-16.384-36.864-34.816-69.632-55.808-95.232 39.424 14.336 74.24 35.328 107.008 60.416zM443.904 238.08c48.64 11.776 90.624 62.464 120.832 134.656-36.864 13.824-76.8 20.992-120.832 23.04V238.08z m0 204.288c48.64-2.56 95.232-11.776 134.656-27.648 13.824 48.64 23.04 106.496 25.6 166.912H441.856V442.368h2.048z m0 185.856h162.304c-2.56 60.416-11.776 118.272-25.6 166.912-41.984-16.384-86.016-25.6-134.656-27.648v-139.264h-2.048z m0 343.04v-157.696c44.032 2.56 83.456 11.776 120.832 23.04-30.208 74.24-72.192 122.88-120.832 134.656z m104.448-18.432c20.992-25.6 39.424-57.856 55.808-95.232 18.432 9.216 34.816 20.992 51.2 34.816-32.768 25.6-67.584 46.592-107.008 60.416z m141.824-92.672c-18.432-18.432-41.984-32.256-67.072-46.592 18.432-55.808 27.648-118.272 30.208-185.344h139.264c-7.68 90.112-44.544 171.52-102.4 231.936z m-37.376-278.528c-2.56-67.072-13.824-130.048-30.208-185.344 25.6-13.824 48.64-27.648 67.072-46.592 57.856 60.416 97.28 141.312 101.888 231.936h-138.752zM606.208 1.536C472.064 1.536 353.792 64.512 276.992 163.84c34.816-11.776 71.68-18.432 109.056-20.992-4.608-2.56-9.216-7.168-13.824-9.216 32.256-25.6 67.072-46.592 106.496-60.416C462.848 92.16 448.512 117.76 434.688 143.36c16.384 0 32.256 2.56 48.64 4.608 27.648-51.2 62.464-83.456 101.888-92.672v118.272c16.384 7.168 32.256 11.776 46.592 20.992V54.784C680.448 66.56 722.432 117.76 752.64 189.44c-27.648 11.776-57.856 18.432-90.624 20.992 18.432 11.776 36.864 23.04 53.248 36.864 18.432-4.608 36.864-9.216 53.248-16.384 9.216 27.648 13.824 57.856 18.432 88.064 27.648 34.816 51.2 76.8 67.072 122.88h120.832c-4.608 88.064-41.984 164.864-97.28 224.768-4.608 27.648-9.216 55.808-18.432 81.408 99.84-76.8 162.304-195.072 162.304-329.216C1024 189.44 836.096 1.536 606.208 1.536z m128 69.632c39.424 13.824 74.24 34.816 106.496 60.416-13.824 11.776-32.256 23.04-51.2 34.816-13.824-37.376-32.256-69.632-55.296-95.232z m104.448 324.608c-2.56-67.072-13.824-130.048-30.208-185.344 25.6-13.824 48.64-27.648 67.072-46.592 57.856 60.416 97.28 141.312 101.888 231.936h-138.752z" p-id="21460" fill="#adbac7"></path></svg>