<?xml version="1.0" standalone="no"?><!DOCTYPE svg PUBLIC "-//W3C//DTD SVG 1.1//EN" "http://www.w3.org/Graphics/SVG/1.1/DTD/svg11.dtd"><svg t="1610671548958" class="icon" viewBox="0 0 1024 1024" version="1.1" xmlns="http://www.w3.org/2000/svg" p-id="65191" width="70" height="70" xmlns:xlink="http://www.w3.org/1999/xlink"><defs><style type="text/css"></style></defs><path d="M824.832 630.784l-121.856-50.176c-14.848-5.632-31.744 1.536-37.376 16.384-5.632 14.848 1.536 31.744 16.384 37.376l59.904 24.576-59.904 27.648c-14.336 6.144-20.992 23.04-14.848 37.376 5.12 9.728 14.848 15.872 26.112 15.872 4.096 0.512 8.192-0.512 11.264-3.072l120.32-54.784c9.728-4.608 16.384-14.848 16.384-26.112 0-11.264-6.144-20.992-16.384-25.088z m-276.48-113.664c-14.848-4.608-30.72 3.072-35.84 17.92l-61.44 188.416c-4.608 14.848 3.072 30.72 17.92 35.84 2.56 1.024 5.12 1.536 8.192 1.536 12.288-0.512 23.04-8.192 27.648-19.456l61.952-188.416c4.608-14.848-3.584-30.72-18.432-35.84z m-189.44 80.384c-6.144-14.336-22.528-21.504-37.376-16.384l-122.368 49.664c-10.24 4.608-17.408 14.848-17.92 26.112 0 11.264 6.656 20.992 16.896 25.6l120.32 55.296c3.584 2.048 7.168 3.072 11.264 3.072 11.264 0 20.992-6.144 26.112-16.384 6.144-14.336-0.512-31.232-14.848-37.376l-59.904-27.648 59.904-24.576c15.872-7.168 24.064-23.552 17.92-37.376z" p-id="65192" fill="#444"></path><path d="M853.504 170.496c31.232 0 56.832 25.6 56.832 56.832v568.832c0 31.232-25.6 56.832-56.832 56.832H170.496c-31.232 0-56.832-25.6-56.832-56.832V227.328c0-31.232 25.6-56.832 56.832-56.832h683.008m0-56.832H170.496c-62.976 0-113.664 50.688-113.664 113.664v568.832c0 62.976 50.688 113.664 113.664 113.664h682.496c62.976 0 113.664-50.688 113.664-113.664V227.328c0.512-62.464-50.688-113.664-113.152-113.664z" p-id="65193" fill="#444"></path><path d="M967.168 365.568H56.832v56.832h910.336V365.568zM182.272 273.408c0 23.552 18.944 42.496 42.496 42.496s42.496-18.944 42.496-42.496-18.944-42.496-42.496-42.496-42.496 18.944-42.496 42.496zM314.88 273.408c0 23.552 18.944 42.496 42.496 42.496 23.552 0 42.496-18.944 42.496-42.496s-18.944-42.496-42.496-42.496c-23.552 0-42.496 18.944-42.496 42.496zM447.488 273.408c0 23.552 18.944 42.496 42.496 42.496 23.552 0 42.496-18.944 42.496-42.496s-18.944-42.496-42.496-42.496c-23.552 0-42.496 18.944-42.496 42.496z" p-id="65194" fill="#444"></path></svg>