<?xml version="1.0" standalone="no"?><!DOCTYPE svg PUBLIC "-//W3C//DTD SVG 1.1//EN" "http://www.w3.org/Graphics/SVG/1.1/DTD/svg11.dtd"><svg t="1610673169440" class="icon" viewBox="0 0 1024 1024" version="1.1" xmlns="http://www.w3.org/2000/svg" p-id="92107" xmlns:xlink="http://www.w3.org/1999/xlink" width="70" height="70"><defs><style type="text/css"></style></defs><path d="M266.666667 128C202.24 128 149.333333 180.906667 149.333333 245.333333v64c0 33.813333 15.04 63.850667 38.208 85.333334C164.373333 416.149333 149.333333 446.186667 149.333333 480v64c0 33.493333 14.378667 63.786667 37.162667 85.248A116.885333 116.885333 0 0 0 149.333333 714.666667v64c0 64.704 52.650667 117.333333 117.333334 117.333333h4.330666l11.84-64H266.666667a53.397333 53.397333 0 0 1-53.333334-53.333333v-64c0-29.397333 23.914667-53.333333 53.333334-53.333334h279.68l1.984-9.173333A70.208 70.208 0 0 1 616.448 597.333333H266.666667a52.864 52.864 0 0 1-53.333334-53.333333v-64c0-29.824 23.509333-53.333333 53.333334-53.333333h490.666666c29.824 0 53.333333 23.509333 53.333334 53.333333v64c0 29.824-23.509333 53.333333-53.333334 53.333333h-140.885333c21.418667 0 41.365333 9.621333 54.677333 26.410667 8.704 10.965333 13.397333 24.042667 14.506667 37.589333H757.333333c25.770667 0 47.296 18.346667 52.266667 42.666667h64.533333a116.992 116.992 0 0 0-36.693333-74.709333A116.970667 116.970667 0 0 0 874.666667 544v-64c0-33.813333-15.04-63.850667-38.208-85.333333 23.168-21.482667 38.208-51.52 38.208-85.333334v-64C874.666667 180.906667 821.76 128 757.333333 128h-490.666666z m0 64h490.666666c29.824 0 53.333333 23.509333 53.333334 53.333333v64c0 29.824-23.509333 53.333333-53.333334 53.333334h-490.666666a52.864 52.864 0 0 1-53.333334-53.333334v-64c0-29.824 23.509333-53.333333 53.333334-53.333333z m349.781333 448a27.093333 27.093333 0 0 0-26.453333 21.290667l-48.853334 223.168A27.093333 27.093333 0 0 0 567.573333 917.333333h0.362667c12.8 0 23.850667-8.96 26.496-21.504L616.96 789.333333h44.757333c14.272 0 23.68 2.368 28.074667 7.082667 4.373333 4.757333 5.333333 13.738667 2.773333 26.709333l-13.269333 61.376c-3.669333 16.853333 9.173333 32.832 26.410667 32.832h1.450666c12.736 0 23.808-8.874667 26.517334-21.333333l17.493333-80.576c4.757333-24.426667 1.173333-42.368-10.666667-53.248-12.053333-11.050667-33.322667-15.509333-65.002666-15.509333h-49.92l17.258666-73.386667A27.093333 27.093333 0 0 0 616.448 640z m-251.946667 106.666667c-13.056 0-24.32 9.322667-26.666666 22.186666l-33.28 180.48a27.093333 27.093333 0 0 0 26.666666 32h1.152a27.093333 27.093333 0 0 0 26.666667-22.4l7.338667-41.6h35.072c73.514667 0 113.557333-17.024 128.512-80.128 12.864-54.186667-20.032-90.538667-74.24-90.538666h-91.221334z m448 0c-13.056 0-24.32 9.322667-26.666666 22.186666l-33.28 180.48a27.093333 27.093333 0 0 0 26.666666 32h1.152a27.093333 27.093333 0 0 0 26.666667-22.4l7.338667-41.6h35.072c73.514667 0 113.557333-17.024 128.512-80.128 12.864-54.186667-20.032-90.538667-74.24-90.538666h-91.221334zM390.4 789.333333h43.946667c36.437333 0 44.117333 16.426667 42.218666 34.709334C471.68 871.104 442.368 874.666667 410.794667 874.666667h-36.48l16.106666-85.333334z m448 0h43.946667c36.437333 0 44.117333 16.426667 42.218666 34.709334C919.68 871.104 890.368 874.666667 858.794667 874.666667h-36.48l16.106666-85.333334z" p-id="92108" fill="#cdd9e5"></path></svg>