<?xml version="1.0" standalone="no"?><!DOCTYPE svg PUBLIC "-//W3C//DTD SVG 1.1//EN" "http://www.w3.org/Graphics/SVG/1.1/DTD/svg11.dtd"><svg t="1620526776061" class="icon" viewBox="0 0 1024 1024" version="1.1" xmlns="http://www.w3.org/2000/svg" p-id="12087" width="70" height="70" xmlns:xlink="http://www.w3.org/1999/xlink"><defs><style type="text/css"></style></defs><path d="M204.663467 720.605867l277.060266 159.6928a51.131733 51.131733 0 0 0-20.5824 47.2576l-285.44-164.5568a51.217067 51.217067 0 0 0 28.962134-42.3936z m614.673066 0a51.217067 51.217067 0 0 0 28.9792 42.3936L562.858667 927.573333a51.131733 51.131733 0 0 0-20.5824-47.2576l277.060266-159.6928zM537.617067 539.272533v337.988267A50.961067 50.961067 0 0 0 512 870.4c-9.335467 0-18.090667 2.491733-25.6 6.8608V539.272533c7.509333 4.369067 16.264533 6.8608 25.6 6.8608s18.090667-2.491733 25.6-6.8608zM460.8 102.4c0 19.114667 10.461867 35.754667 25.975467 44.561067l-279.893334 161.28 273.0496 146.773333a51.0976 51.0976 0 0 0-18.466133 48.2304L180.0192 351.914667v321.024A50.961067 50.961067 0 0 0 153.6 665.6c-8.994133 0-17.4592 2.321067-24.797867 6.4v-320a51.2 51.2 0 0 0 52.3264-87.978667L460.8 102.8096 460.8 102.4z m383.1808 267.776c8.123733 3.413333 17.066667 5.290667 26.4192 5.290667a68.096 68.096 0 0 0 24.797867-4.642134v301.1584A50.961067 50.961067 0 0 0 870.4 665.6c-9.659733 0-18.705067 2.679467-26.4192 7.338667V370.176z m-41.301333-54.203733a68.181333 68.181333 0 0 0 25.173333 44.612266L562.517333 503.2448a51.0976 51.0976 0 0 0-18.449066-48.213333l258.6112-139.0592zM563.2 102.8096l263.560533 151.893333a68.1472 68.1472 0 0 0-24.234666 45.141334L537.2416 146.944A51.182933 51.182933 0 0 0 563.2 102.8096z" fill="#fff" p-id="12088"></path><path d="M512 8.533333a94.3616 94.3616 0 0 1 94.4128 94.3104A94.3616 94.3616 0 0 1 512 197.154133a94.3616 94.3616 0 0 1-94.4128-94.3104A94.3616 94.3616 0 0 1 512 8.533333z m0 51.2a43.1616 43.1616 0 0 0-43.2128 43.1104A43.1616 43.1616 0 0 0 512 145.954133c23.893333 0 43.2128-19.319467 43.2128-43.1104A43.1616 43.1616 0 0 0 512 59.733333zM154.146133 626.8928a94.3616 94.3616 0 0 1 94.429867 94.3104 94.3616 94.3616 0 0 1-94.429867 94.293333A94.3616 94.3616 0 0 1 59.733333 721.2032a94.3616 94.3616 0 0 1 94.4128-94.3104z m0 51.2A43.1616 43.1616 0 0 0 110.933333 721.2032a43.1616 43.1616 0 0 0 43.2128 43.093333c23.893333 0 43.229867-19.3024 43.229867-43.093333a43.1616 43.1616 0 0 0-43.229867-43.1104zM869.853867 626.8928a94.3616 94.3616 0 0 1 94.4128 94.3104 94.3616 94.3616 0 0 1-94.4128 94.293333 94.3616 94.3616 0 0 1-94.429867-94.293333 94.3616 94.3616 0 0 1 94.429867-94.3104z m0 51.2a43.1616 43.1616 0 0 0-43.229867 43.1104 43.1616 43.1616 0 0 0 43.229867 43.093333c23.876267 0 43.2128-19.3024 43.2128-43.093333a43.1616 43.1616 0 0 0-43.2128-43.1104z" fill="#fff" p-id="12089"></path><path d="M512 819.268267a94.3616 94.3616 0 0 1 94.4128 94.3104A94.3616 94.3616 0 0 1 512 1007.889067a94.3616 94.3616 0 0 1-94.4128-94.3104A94.3616 94.3616 0 0 1 512 819.268267z m0 51.2a43.1616 43.1616 0 0 0-43.2128 43.1104A43.1616 43.1616 0 0 0 512 956.689067c23.893333 0 43.2128-19.319467 43.2128-43.1104A43.1616 43.1616 0 0 0 512 870.468267zM869.853867 214.647467a94.3616 94.3616 0 0 1 94.4128 94.3104 94.3616 94.3616 0 0 1-94.4128 94.3104 94.3616 94.3616 0 0 1-94.429867-94.3104 94.3616 94.3616 0 0 1 94.429867-94.3104z m0 51.2a43.1616 43.1616 0 0 0-43.229867 43.1104 43.1616 43.1616 0 0 0 43.229867 43.1104c23.876267 0 43.2128-19.319467 43.2128-43.1104a43.1616 43.1616 0 0 0-43.2128-43.1104z" fill="#fff" p-id="12090"></path><path d="M512 407.04a94.3616 94.3616 0 0 1 94.4128 94.293333A94.3616 94.3616 0 0 1 512 595.643733a94.3616 94.3616 0 0 1-94.4128-94.3104A94.3616 94.3616 0 0 1 512 407.04z m0 51.2a43.1616 43.1616 0 0 0-43.2128 43.093333A43.1616 43.1616 0 0 0 512 544.443733c23.893333 0 43.2128-19.3024 43.2128-43.1104A43.1616 43.1616 0 0 0 512 458.24z" fill="#fff" p-id="12091"></path><path d="M154.146133 214.647467a94.3616 94.3616 0 0 1 94.429867 94.3104 94.3616 94.3616 0 0 1-94.429867 94.3104A94.3616 94.3616 0 0 1 59.733333 308.957867a94.3616 94.3616 0 0 1 94.4128-94.3104z m0 51.2A43.1616 43.1616 0 0 0 110.933333 308.957867a43.1616 43.1616 0 0 0 43.2128 43.1104c23.893333 0 43.229867-19.319467 43.229867-43.1104a43.1616 43.1616 0 0 0-43.229867-43.1104z" fill="#fff" p-id="12092"></path></svg>