<?xml version="1.0" standalone="no"?><!DOCTYPE svg PUBLIC "-//W3C//DTD SVG 1.1//EN" "http://www.w3.org/Graphics/SVG/1.1/DTD/svg11.dtd"><svg t="1611619527156" class="icon" viewBox="0 0 1024 1024" version="1.1" xmlns="http://www.w3.org/2000/svg" p-id="4042" width="70" height="70" xmlns:xlink="http://www.w3.org/1999/xlink"><defs><style type="text/css"></style></defs><path d="M876.544 68.5568c8.4992 3.584 14.6944 11.264 16.4352 20.48a28.3136 28.3136 0 0 1-7.68 25.2416l-90.4704 90.4192a5.4272 5.4272 0 0 0 0 7.4752l43.0592 43.0592a5.4272 5.4272 0 0 0 7.4752 0l90.4704-90.4192a27.9552 27.9552 0 0 1 45.6192 8.704c15.872 36.9152 20.0704 77.6704 12.3392 118.016a196.5056 196.5056 0 0 1-155.7504 156.7232 202.3936 202.3936 0 0 1-104.704-6.656l-291.84 291.84a202.0864 202.0864 0 0 1-6.5536 146.2272 198.144 198.144 0 0 1-182.6304 118.016 198.144 198.144 0 0 1-78.7456-16.128 28.3136 28.3136 0 0 1-8.704-45.7216l90.368-90.4704a5.4272 5.4272 0 0 0 0-7.4752l-43.008-43.008a5.4272 5.4272 0 0 0-7.5264 0l-90.624 90.624a27.9552 27.9552 0 0 1-45.5168-8.7552 201.472 201.472 0 0 1-12.3904-117.9648 196.5056 196.5056 0 0 1 155.8016-156.672 203.3664 203.3664 0 0 1 104.9088 6.6048l291.84-291.84a203.1104 203.1104 0 0 1 6.4-146.432 198.144 198.144 0 0 1 143.4112-114.2784 201.472 201.472 0 0 1 118.016 12.3904zM663.4496 596.992l259.4304 259.4304a56.1152 56.1152 0 0 1 0 79.2064l-45.6704 45.6192a56.064 56.064 0 0 1-79.104-0.1024l-259.4304-259.3792a26.2144 26.2144 0 1 1 37.12-37.12l259.4304 259.3792a3.2768 3.2768 0 0 0 2.4576 0.9728 3.2768 3.2768 0 0 0 2.4576-0.9728l45.5168-45.568a3.584 3.584 0 0 0 0-4.9152l-259.328-259.4304a26.2144 26.2144 0 1 1 37.12-37.12z m104.9088-489.1648a145.3568 145.3568 0 0 0-115.2 115.3024 149.76 149.76 0 0 0 10.0352 89.344 26.2656 26.2656 0 0 1-5.3248 29.2864l-316.16 316.16a26.2656 26.2656 0 0 1-29.2864 5.376 148.5824 148.5824 0 0 0-90.4192-9.8304 144.384 144.384 0 0 0-114.3808 114.944 152.6784 152.6784 0 0 0-1.28 50.432L167.4752 757.76c22.528-22.528 59.1872-22.528 81.8176 0l43.0592 43.008c22.528 22.528 22.528 59.1872 0 81.8176L231.2192 943.616c16.4352 2.3552 33.4848 1.8944 50.3808-1.28a145.3568 145.3568 0 0 0 115.2-115.3024c5.8368-30.72 2.3552-61.44-9.9328-89.088a26.2656 26.2656 0 0 1 5.376-29.3376l316.2624-316.2624a26.2656 26.2656 0 0 1 29.2864-5.3248c28.0064 12.4416 59.136 15.872 90.2144 9.7792a144.384 144.384 0 0 0 114.3296-114.944c3.2256-16.64 3.6864-33.6384 1.28-50.432l-61.1328 61.184c-22.528 22.528-59.1872 22.528-81.8176 0l-43.008-43.0592a57.9584 57.9584 0 0 1 0-81.8176l61.1328-61.1328a155.9552 155.9552 0 0 0-50.432 1.28zM477.184 53.7088c33.3824 0 66.2016 5.632 97.4336 16.5888 13.568 4.7616 20.0704 17.8176 21.7088 27.5456a44.1856 44.1856 0 0 1-8.192 31.8464 38.144 38.144 0 0 1-25.088 15.36c-0.2048 0-0.4096 0.1536-0.768 0.1536a208.4352 208.4352 0 0 0-180.4288 170.1376l71.168 71.168a26.2144 26.2144 0 1 1-37.0688 37.12L335.36 343.1424a26.2656 26.2656 0 0 1-7.3216-22.6816v-0.2048A261.8368 261.8368 0 0 1 498.176 107.008a240.8448 240.8448 0 0 0-196.9664 75.776 27.4432 27.4432 0 0 1-3.4304 2.9696L105.472 378.368l80.384 80.4352 63.488-63.488c10.24-10.24 26.8288-10.24 37.12 0l79.0016 79.0016a26.2144 26.2144 0 1 1-37.12 37.12l-60.416-60.416L214.9376 503.808a40.96 40.96 0 0 1-58.112 0L67.584 414.5152a51.5072 51.5072 0 0 1 0-72.5504l195.7376-195.7376a30.4128 30.4128 0 0 1 2.048-1.8432 291.2768 291.2768 0 0 1 92.928-65.4848A290.816 290.816 0 0 1 477.184 53.76z" p-id="4043" fill="#444"></path></svg>