<?xml version="1.0" standalone="no"?><!DOCTYPE svg PUBLIC "-//W3C//DTD SVG 1.1//EN" "http://www.w3.org/Graphics/SVG/1.1/DTD/svg11.dtd"><svg t="1610670226515" class="icon" viewBox="0 0 1080 1024" version="1.1" xmlns="http://www.w3.org/2000/svg" p-id="18686" width="73.828125" height="70" xmlns:xlink="http://www.w3.org/1999/xlink"><defs><style type="text/css"></style></defs><path d="M527.872 419.157a181.362 181.362 0 0 1-181.134-181.134A181.362 181.362 0 0 1 527.872 56.89a181.362 181.362 0 0 1 181.134 181.134 181.362 181.362 0 0 1-181.134 181.134z m0-289.792c-59.96 0-108.658 48.754-108.658 108.658s48.697 108.658 108.658 108.658c59.904 0 108.658-48.754 108.658-108.658s-48.754-108.658-108.658-108.658z m289.792 785.579A181.362 181.362 0 0 1 636.53 733.81a181.362 181.362 0 0 1 181.134-181.134A181.362 181.362 0 0 1 998.798 733.81a181.362 181.362 0 0 1-181.134 181.134z m0-289.849c-59.904 0-108.658 48.81-108.658 108.658 0 59.96 48.754 108.715 108.658 108.715s108.658-48.754 108.658-108.658-48.754-108.658-108.658-108.658z m-579.64 289.849A181.362 181.362 0 0 1 56.888 733.81a181.362 181.362 0 0 1 181.134-181.134A181.362 181.362 0 0 1 419.157 733.81a181.362 181.362 0 0 1-181.134 181.134z m0-289.849c-59.905 0-108.659 48.81-108.659 108.658 0 59.96 48.754 108.715 108.658 108.715s108.658-48.754 108.658-108.658-48.754-108.658-108.658-108.658z" fill="#fff" p-id="18687"></path><path d="M211.456 521.5a36.238 36.238 0 0 1-35.214-44.942A361.643 361.643 0 0 1 366.25 239.787a36.238 36.238 0 1 1 32.426 64.796 289.45 289.45 0 0 0-152.12 189.44 36.238 36.238 0 0 1-35.101 27.477zM527.872 926.38a360.05 360.05 0 0 1-204.743-63.375 36.238 36.238 0 1 1 40.96-59.733 292.238 292.238 0 0 0 234.78 41.813 36.238 36.238 0 1 1 17.636 70.315 363.634 363.634 0 0 1-88.747 10.98z m325.177-302.023a36.238 36.238 0 0 1-36.125-38.912 288.085 288.085 0 0 0-82.773-224.94 36.238 36.238 0 1 1 51.541-50.915 360.107 360.107 0 0 1 103.481 281.259 36.238 36.238 0 0 1-36.124 33.564z" fill="#fff" p-id="18688"></path><path d="M206.28 521.5a36.238 36.238 0 0 1-34.93-26.851l-18.774-69.973a36.238 36.238 0 1 1 69.973-18.774l18.774 69.974a36.238 36.238 0 0 1-35.044 45.624z m623.672-131.413a35.271 35.271 0 0 1-9.444-1.308l-69.973-18.774a36.238 36.238 0 1 1 18.773-69.973l69.974 18.773a36.238 36.238 0 0 1-9.33 71.225zM556.544 966.94a36.181 36.181 0 0 1-25.6-61.838l51.2-51.2a36.238 36.238 0 0 1 51.257 51.2l-51.2 51.2a36.181 36.181 0 0 1-25.657 10.638z" fill="#fff" p-id="18689"></path></svg>